<?xml version="1.0" encoding="utf-8"?>
<!-- Generator: Adobe Illustrator 16.0.0, SVG Export Plug-In . SVG Version: 6.00 Build 0)  -->
<!DOCTYPE svg PUBLIC "-//W3C//DTD SVG 1.1//EN" "http://www.w3.org/Graphics/SVG/1.1/DTD/svg11.dtd">
<svg version="1.1" id="레이어_1" xmlns="http://www.w3.org/2000/svg" xmlns:xlink="http://www.w3.org/1999/xlink" x="0px"
	 y="0px" width="752px" height="135px" viewBox="0 0 752 135" enable-background="new 0 0 752 135" xml:space="preserve">
<path fill="#2D3F49" d="M120.745,130.245c-3.255,0-7.035-0.779-8.917-1.635l0.941-4.047c2.659,0.777,5.231,1.27,8.064,1.27
	c3.906,0,4.545-0.779,4.545-3.396c0-3.019-0.083-3.263-5.229-4.326c-6.909-1.47-7.848-2.738-7.848-8.499
	c0-4.941,2.356-7.39,9.605-7.39c2.482,0,5.492,0.281,8.321,0.896l-0.598,4.331c-2.363-0.492-5.153-0.816-7.637-0.816
	c-3.646,0-4.294,0.736-4.294,3.104c0,3.105,0.086,3.185,5.021,4.329c7.676,1.759,8.065,2.941,8.065,8.371
	C130.784,127.59,129.195,130.245,120.745,130.245"/>
<polygon fill="#2D3F49" points="135.505,102.628 152.995,102.628 152.995,107.163 140.908,107.163 140.908,113.743 152.053,113.743 
	152.053,118.271 140.908,118.271 140.908,125.298 152.995,125.298 152.995,129.832 135.505,129.832 "/>
<path fill="#2D3F49" d="M157.932,129.834v-27.207h11.24c5.403,0,7.585,2.127,7.585,5.804v2.816c0,2.243-0.981,3.516-3.172,4.411
	c2.618,0.531,4.162,2.368,4.162,5.026v2.9c0,3.838-2.619,6.249-7.805,6.249H157.932z M171.354,109.08
	c0-1.509-0.853-2.202-2.833-2.202h-5.186v7.145h5.143c2.106,0,2.876-0.938,2.876-2.532V109.08z M172.347,120.887
	c0-1.84-0.862-2.738-3.004-2.738h-6.008v7.436h5.534c2.439,0,3.478-0.651,3.478-2.653V120.887z"/>
<path fill="#2D3F49" d="M197.949,124.199h-10.598l-1.797,5.635h-5.66l9.006-27.207h7.548l9.003,27.207h-5.656L197.949,124.199z
	 M188.686,119.743h7.891l-3.9-12.865L188.686,119.743z"/>
<polygon fill="#2D3F49" points="214.379,109.206 214.379,129.833 209.095,129.833 209.095,102.629 216.304,102.629 227.162,123.297 
	227.162,102.629 232.434,102.629 232.434,129.833 225.231,129.833 "/>
<path fill="#2D3F49" d="M272.858,129.834v-27.207h11.237c5.399,0,7.588,2.127,7.588,5.804v2.816c0,2.243-0.984,3.516-3.172,4.411
	c2.615,0.531,4.162,2.368,4.162,5.026v2.9c0,3.838-2.619,6.249-7.805,6.249H272.858z M286.281,109.08
	c0-1.509-0.856-2.202-2.83-2.202h-5.186v7.145h5.143c2.106,0,2.873-0.938,2.873-2.532V109.08z M287.265,120.887
	c0-1.84-0.853-2.738-3.001-2.738h-5.999v7.436h5.531c2.445,0,3.469-0.651,3.469-2.653V120.887z"/>
<path fill="#2D3F49" d="M312.875,124.199h-10.592l-1.8,5.635h-5.663l9.009-27.207h7.546l9.005,27.207h-5.659L312.875,124.199z
	 M303.609,119.743h7.894l-3.899-12.865L303.609,119.743z"/>
<polygon fill="#2D3F49" points="327.1,107.164 319.121,107.164 319.121,102.629 340.479,102.629 340.479,107.164 332.502,107.164 
	332.502,129.833 327.1,129.833 "/>
<polygon fill="#2D3F49" points="349.959,107.164 341.978,107.164 341.978,102.629 363.338,102.629 363.338,107.164 355.362,107.164 
	355.362,129.833 349.959,129.833 "/>
<polygon fill="#2D3F49" points="366.985,102.628 384.487,102.628 384.487,107.163 372.388,107.163 372.388,113.743 383.543,113.743 
	383.543,118.271 372.388,118.271 372.388,125.298 384.487,125.298 384.487,129.832 366.985,129.832 "/>
<path fill="#2D3F49" d="M406.528,129.833l-6.562-8.987h-5.146v8.987h-5.403v-27.204h11.708c6.646,0,9.094,2.57,9.094,7.352v3.553
	c0,3.267-1.289,5.556-4.293,6.575l7.074,9.725H406.528z M400.912,107.164h-6.091v9.229h6.091c2.961,0,3.902-1.021,3.902-3.307
	v-2.699C404.814,108.103,403.784,107.164,400.912,107.164"/>
<path fill="#2D3F49" d="M257.479,114.189h-9.424v4.132h4.33v6.979c-1.464,0.204-2.965,0.327-4.431,0.327
	c-3.771,0-4.966-1.556-4.966-4.209v-10.294c0-2.778,1.234-4.246,5.009-4.246c2.796,0,5.412,0.202,8.031,0.734l0.598-4.496
	c-2.576-0.65-5.879-0.895-8.192-0.895c-7.423,0-10.855,2.612-10.855,8.211v11.598c0,5.39,3.349,8.215,10.341,8.215
	c3.001,0,6.561-0.412,9.559-1.229V114.189z"/>
<path fill="#2D3F49" d="M662.891,114.189h-9.425v4.132h4.331v6.979c-1.464,0.204-2.965,0.327-4.432,0.327
	c-3.771,0-4.966-1.556-4.966-4.209v-10.294c0-2.778,1.234-4.246,5.009-4.246c2.794,0,5.412,0.202,8.031,0.734l0.598-4.496
	c-2.575-0.65-5.879-0.895-8.192-0.895c-7.423,0-10.854,2.612-10.854,8.211v11.598c0,5.39,3.35,8.215,10.342,8.215
	c3.001,0,6.561-0.412,9.559-1.229V114.189z"/>
<path fill="#2D3F49" d="M63.612,32.463c-1.298-2.225-3.701-3.741-7.145-4.504L36.2,23.442c-1.552-0.346-2.38-0.728-2.692-1.229
	c-0.177-0.299-0.202-0.669-0.083-1.13l0.951-2.613h33.469l4.59-14.046H36.378c-5.673,0-9.609,0.706-12.396,2.222
	c-3.33,1.813-5.556,4.685-6.802,8.777l-1.831,5.69c-0.978,3.194-0.611,6.619,1.003,9.413c1.586,2.738,4.174,4.578,7.487,5.338
	l19.377,4.325c1.11,0.232,1.834,0.605,2.146,1.1c0.192,0.302,0.235,0.66,0.144,1.054l-0.963,2.918h-33.64L6.377,59.289H40.87
	c7.652,0,11.658-0.401,15.158-2.751c3.615-2.436,5.045-6.341,6.417-10.827l1.635-5.498C64.985,37.231,64.822,34.55,63.612,32.463"/>
<path fill="#2D3F49" d="M235.65,28.324c-1.571-2.142-4.352-3.227-8.273-3.227h-23.751c-8.331,0-13.67,3.322-16.319,10.158
	L169.873,79.97h18.39l5.538-14.391h15.295l-4.624,14.391H222.5l13.806-43.006C237.422,33.422,237.195,30.437,235.65,28.324
	 M213.57,51.861h-14.528l3.804-9.966c0.774-2.056,1.48-2.786,3.866-2.786h10.877L213.57,51.861z"/>
<path fill="#2D3F49" d="M322.469,39.16h25.985l4.624-14.063h-34.857c-8.089,0-12.535,2.899-14.873,9.709l-10.821,33.841
	c-1.03,3.071-0.77,5.911,0.724,7.995c1.559,2.163,4.284,3.307,7.878,3.307h24.017c5.73,0,8.138-0.354,10.733-1.565
	c3.135-1.468,4.917-3.783,6.36-8.264l5.28-16.501c0.779-2.405,0.66-4.327-0.354-5.724c-1.043-1.424-2.956-2.182-5.538-2.182h-17.083
	l-4.342,13.553h7.49l-1.687,5.291c-0.394,1.108-0.733,1.319-2.142,1.319l-12.423-0.003l7.925-24.676
	C319.93,39.466,320.819,39.16,322.469,39.16"/>
<path fill="#2D3F49" d="M280.533,25.098l-8.646,26.948l-6.811-23.513c-0.629-2.246-2.35-3.435-4.975-3.435h-11.928l-17.443,54.375
	l-0.15,0.474h18.018l8.529-26.572l6.974,23.292c0.373,1.227,1.485,3.28,4.724,3.28h12.133l17.593-54.849H280.533z"/>
<path fill="#2D3F49" d="M177.97,27.961c-1.354-1.845-3.933-2.863-7.261-2.863H93.537l1.659-5.207
	c0.419-1.357,1.347-1.421,2.961-1.421h26.3l4.504-14.046H97.778c-5.669,0-9.611,0.706-12.392,2.222
	c-3.331,1.809-5.559,4.685-6.808,8.777L64.496,59.271h47.129l4.504-14.009H87.103l2.122-6.625h70.091l-1.702,5.284
	c-0.287,0.871-0.706,1.341-2.066,1.341l-32.096,0.013l-11.124,34.697h36.161c7.023,0,10.232-0.498,13.205-2.041
	c2.518-1.312,4.18-3.606,5.382-7.451l2.655-8.281c0.85-2.54,1.482-5.422-0.278-7.57l-1.904-2.136l2.992-2.078
	c3.175-2.033,4.067-3.236,5.296-7.145l2.692-8.435C179.413,32.042,179.22,29.667,177.97,27.961 M151.206,63.895
	c-0.645,1.876-1.617,1.974-3.154,1.974h-13.19l2.118-6.598h15.714L151.206,63.895z"/>
<path fill="#2D3F49" d="M693.057,129.836h5.236v-13.46c0-4.024-1.379-5.9-4.336-5.9c-2.6,0-5.654,0.701-8.168,1.876l-0.385,0.179
	l-0.217-0.366c-0.678-1.138-1.793-1.688-3.415-1.688c-2.42,0-5.686,0.753-8.128,1.876l-0.44,0.203l-0.711-1.67h-3.807v18.951h5.234
	v-12.968l0.254-0.136c1.38-0.716,3.502-1.48,4.724-1.48c1.271,0,1.972,0.675,1.972,1.899v12.685h5.237v-12.968l0.253-0.136
	c1.379-0.716,3.502-1.48,4.724-1.48c1.271,0,1.973,0.675,1.973,1.899V129.836z"/>
<path fill="#2D3F49" d="M703.947,129.658c2.955,0.432,6.138,0.587,8.024,0.587c7.968,0,9.566-3.024,9.566-7.904v-5.147
	c0-4.584-1.895-6.718-5.964-6.718c-1.902,0-3.786,0.351-5.759,1.073l-0.633,0.233v-9.499l-5.235,0.692V129.658z M712.185,126.079
	c-0.85,0-1.651,0-2.574-0.082l-0.428-0.04v-10.036l0.263-0.129c1.063-0.527,2.65-1.151,4.156-1.151c1.768,0,2.701,0.896,2.701,2.594
	v5.148C716.303,124.211,715.814,126.079,712.185,126.079"/>
<rect x="417.533" y="102.63" fill="#2D3F49" width="5.404" height="27.208"/>
<polygon fill="#2D3F49" points="428.941,102.63 446.449,102.63 446.449,107.164 434.349,107.164 434.349,113.743 445.504,113.743 
	445.504,118.276 434.349,118.276 434.349,125.303 446.449,125.303 446.449,129.838 428.941,129.838 "/>
<path fill="#2D3F49" d="M459.143,130.245c-3.262,0-7.038-0.776-8.924-1.634l0.945-4.044c2.659,0.777,5.233,1.268,8.065,1.268
	c3.903,0,4.548-0.778,4.548-3.392c0-3.023-0.087-3.27-5.236-4.329c-6.907-1.472-7.852-2.739-7.852-8.498
	c0-4.942,2.361-7.395,9.611-7.395c2.489,0,5.493,0.286,8.324,0.899l-0.601,4.331c-2.359-0.492-5.149-0.817-7.637-0.817
	c-3.647,0-4.292,0.734-4.292,3.104c0,3.105,0.087,3.188,5.021,4.332c7.68,1.756,8.066,2.939,8.066,8.373
	C469.184,127.591,467.595,130.245,459.143,130.245"/>
<polygon fill="#2D3F49" points="484.385,102.63 501.892,102.63 501.892,107.164 489.791,107.164 489.791,113.743 500.948,113.743 
	500.948,118.276 489.791,118.276 489.791,125.303 501.892,125.303 501.892,129.838 484.385,129.838 "/>
<path fill="#2D3F49" d="M527.716,102.63v19.323c0,4.287-2.533,8.292-10.556,8.292c-8.024,0-10.555-4.005-10.555-8.292V102.63h5.405
	v18.915c0,2.653,1.33,4.166,5.149,4.166c3.817,0,5.147-1.513,5.147-4.166V102.63H527.716z"/>
<path fill="#2D3F49" d="M550.404,129.838l-6.564-8.989h-5.147v8.989h-5.408V102.63h11.714c6.651,0,9.098,2.576,9.098,7.354v3.555
	c0,3.267-1.287,5.558-4.291,6.578l7.079,9.722H550.404z M544.784,107.164h-6.092v9.232h6.092c2.96,0,3.905-1.021,3.905-3.308v-2.695
	C548.689,108.104,547.659,107.164,544.784,107.164"/>
<path fill="#2D3F49" d="M581.504,121.872c0,4.533-2.745,8.373-10.812,8.373c-8.065,0-10.813-3.84-10.813-8.373v-11.274
	c0-4.535,2.748-8.376,10.813-8.376c8.066,0,10.812,3.841,10.812,8.376V121.872z M565.287,121.586c0,2.574,1.371,4.125,5.405,4.125
	c4.032,0,5.406-1.551,5.406-4.125v-10.705c0-2.571-1.374-4.124-5.406-4.124c-4.034,0-5.405,1.553-5.405,4.124V121.586z"/>
<path fill="#2D3F49" d="M586.648,102.63h11.155c6.608,0,9.052,2.576,9.052,7.354v3.718c0,4.739-2.658,7.313-9.31,7.313h-5.492v8.823
	h-5.405V102.63z M597.502,107.164h-5.448v9.313h5.448c3.047,0,3.947-1.06,3.947-3.307v-2.777
	C601.449,108.145,600.465,107.164,597.502,107.164"/>
<polygon fill="#2D3F49" points="610.712,102.63 628.218,102.63 628.218,107.164 616.118,107.164 616.118,113.743 627.273,113.743 
	627.273,118.276 616.118,118.276 616.118,125.303 628.218,125.303 628.218,129.838 610.712,129.838 "/>
<polygon fill="#2D3F49" points="742.529,129.836 742.529,118.356 731.931,118.356 731.931,129.836 726.525,129.836 726.525,102.63 
	731.931,102.63 731.931,113.822 742.529,113.822 742.529,102.63 747.936,102.63 747.936,129.836 "/>
</svg>
